{"accessors":[{"bufferView":2,"componentType":5126,"count":960,"max":[0.6517965197563171,-0.46932974457740784,8.036211013793945],"min":[-0.6517965197563171,-0.855644941329956,7.2373948097229],"type":"VEC3"},{"bufferView":2,"byteOffset":11520,"componentType":5126,"count":960,"max":[0.9991006851196289,0.9999985694885254,0.9999724626541138],"min":[-0.9991006851196289,-0.9993489980697632,-0.999891996383667],"type":"VEC3"},{"bufferView":1,"componentType":5126,"count":960,"max":[0.7989088892936707,0.9961374402046204],"min":[0.1336987316608429,0.001291036605834961],"type":"VEC2"},{"bufferView":0,"componentType":5125,"count":2958,"type":"SCALAR"},{"bufferView":2,"byteOffset":23040,"componentType":5126,"count":104,"max":[0.4777011573314667,-0.5773066878318787,7.8017683029174805],"min":[-0.4827938973903656,-0.6822167634963989,7.464670658111572],"type":"VEC3"},{"bufferView":2,"byteOffset":24288,"componentType":5126,"count":104,"max":[0.9823312759399414,0.1546565592288971,0.9902001619338989],"min":[-0.9823315143585205,-0.9787483215332031,-0.9340589046478271],"type":"VEC3"},{"bufferView":1,"byteOffset":7680,"componentType":5126,"count":104,"max":[0.992404580116272,0.18951809406280518],"min":[0.5307573080062866,0.00889134407043457],"type":"VEC2"},{"bufferView":0,"byteOffset":11832,"componentType":5125,"count":420,"type":"SCALAR"},{"bufferView":2,"byteOffset":25536,"componentType":5126,"count":709,"max":[0.7091062664985657,0.00823927391320467,8.57319164276123],"min":[-0.7091062664985657,-0.8904430270195007,7.0714311599731445],"type":"VEC3"},{"bufferView":2,"byteOffset":34044,"componentType":5126,"count":709,"max":[0.9981600642204285,0.35650894045829773,0.9724671244621277],"min":[-0.998160183429718,-0.9986320734024048,-0.9920403361320496],"type":"VEC3"},{"bufferView":1,"byteOffset":8512,"componentType":5126,"count":709,"max":[0.970382034778595,0.9653027653694153],"min":[0.02957487665116787,0.1999422311782837],"type":"VEC2"},{"bufferView":0,"byteOffset":13512,"componentType":5125,"count":3798,"type":"SCALAR"},{"bufferView":2,"byteOffset":42552,"componentType":5126,"count":2092,"max":[3.278618574142456,0.3532559871673584,7.833491802215576],"min":[-3.278618574142456,-0.6505076289176941,1.5481675863265991],"type":"VEC3"},{"bufferView":2,"byteOffset":67656,"componentType":5126,"count":2092,"max":[0.9964463710784912,0.9990552067756653,0.8297606110572815],"min":[-0.9994037747383118,-0.9994717836380005,-0.9999820590019226],"type":"VEC3"},{"bufferView":1,"byteOffset":14184,"componentType":5126,"count":2092,"max":[0.9806361198425293,0.5613608360290527],"min":[0.07726164907217026,0.002777278423309326],"type":"VEC2"},{"bufferView":0,"byteOffset":28704,"componentType":5125,"count":8901,"type":"SCALAR"},{"bufferView":2,"byteOffset":92760,"componentType":5126,"count":5151,"max":[2.9606781005859375,1.0845577716827393,10.306648254394531],"min":[-2.9606781005859375,-1.346270203590393,0.0006759336101822555],"type":"VEC3"},{"bufferView":2,"byteOffset":154572,"componentType":5126,"count":5151,"max":[1,0.9999173283576965,0.9875981211662292],"min":[-1,-0.9998583197593689,-1],"type":"VEC3"},{"bufferView":1,"byteOffset":30920,"componentType":5126,"count":5151,"max":[0.9968546628952026,0.9968249797821045],"min":[0.0034656748175621033,0.004316926002502441],"type":"VEC2"},{"bufferView":0,"byteOffset":64308,"componentType":5125,"count":19053,"type":"SCALAR"},{"bufferView":2,"byteOffset":216384,"componentType":5126,"count":1024,"max":[1.7529685497283936,1.1716238260269165,9.18505859375],"min":[-1.6708269119262695,-1.0395663976669312,6.04332160949707],"type":"VEC3"},{"bufferView":2,"byteOffset":228672,"componentType":5126,"count":1024,"max":[0.9981465339660645,0.9997701048851013,0.9982948303222656],"min":[-0.9998611807823181,-0.9993112087249756,-0.9853266477584839],"type":"VEC3"},{"bufferView":1,"byteOffset":72128,"componentType":5126,"count":1024,"max":[0.9963600635528564,0.9939182996749878],"min":[0.0008842945098876953,0.005664646625518799],"type":"VEC2"},{"bufferView":0,"byteOffset":140520,"componentType":5125,"count":3966,"type":"SCALAR"},{"bufferView":2,"byteOffset":240960,"componentType":5126,"count":316,"max":[3.752932548522949,2.6615028381347656,6.915863037109375],"min":[-0.27874165773391724,0.09400653839111328,2.75656795501709],"type":"VEC3"},{"bufferView":2,"byteOffset":244752,"componentType":5126,"count":316,"max":[0.9847404360771179,0.8581994771957397,0.8307330012321472],"min":[-0.9993180632591248,-0.8583375811576843,-0.8607504963874817],"type":"VEC3"},{"bufferView":1,"byteOffset":80320,"componentType":5126,"count":316,"max":[0.9233918190002441,0.9836677312850952],"min":[0.053139086812734604,0.01574486494064331],"type":"VEC2"},{"bufferView":0,"byteOffset":156384,"componentType":5125,"count":966,"type":"SCALAR"},{"bufferView":2,"byteOffset":248544,"componentType":5126,"count":306,"max":[0.2576865255832672,-0.14128658175468445,7.750317573547363],"min":[-0.2576865255832672,-0.25526130199432373,7.511090278625488],"type":"VEC3"},{"bufferView":2,"byteOffset":252216,"componentType":5126,"count":306,"max":[0.7482457756996155,-0.6242272257804871,0.5656735301017761],"min":[-0.7487775087356567,-0.9993309378623962,-0.7259646058082581],"type":"VEC3"},{"bufferView":1,"byteOffset":82848,"componentType":5126,"count":306,"max":[0.8670778274536133,0.9803438782691956],"min":[-0.006174370646476746,0.14193087816238403],"type":"VEC2"},{"bufferView":0,"byteOffset":160248,"componentType":5125,"count":1326,"type":"SCALAR"}],"asset":{"extras":{"author":"theuniversalmodeler (https://sketchfab.com/theuniversalmodeler)","license":"CC-BY-4.0 (http://creativecommons.org/licenses/by/4.0/)","source":"https://sketchfab.com/3d-models/genshin-impact-paimon-d94177125e46426ab448a62e86c4fdc2","title":"Genshin Impact - Paimon"},"generator":"Sketchfab-11.53.2","version":"2.0"},"bufferViews":[{"buffer":0,"byteLength":165552,"name":"floatBufferViews","target":34963},{"buffer":0,"byteLength":85296,"byteOffset":165552,"byteStride":8,"name":"floatBufferViews","target":34962},{"buffer":0,"byteLength":255888,"byteOffset":250848,"byteStride":12,"name":"floatBufferViews","target":34962}],"buffers":[{"byteLength":506736,"uri":"data:application/octet-stream;base64,"}],"images":[{"uri":"data:application/octet-stream;base64,"},{"uri":"data:application/octet-stream;base64,"},{"uri":"data:application/octet-stream;base64,"},{"uri":"data:application/octet-stream;base64,"},{"uri":"data:application/octet-stream;base64,"}],"materials":[{"doubleSided":true,"name":"Material_0","pbrMetallicRoughness":{"baseColorTexture":{"index":0},"metallicFactor":0}},{"doubleSided":true,"name":"Material_1","pbrMetallicRoughness":{"baseColorTexture":{"index":1},"metallicFactor":0}},{"doubleSided":true,"name":"Material_2","pbrMetallicRoughness":{"baseColorTexture":{"index":0},"metallicFactor":0}},{"doubleSided":true,"name":"Material_3","pbrMetallicRoughness":{"baseColorTexture":{"index":2},"metallicFactor":0}},{"doubleSided":true,"name":"Material_4","pbrMetallicRoughness":{"baseColorTexture":{"index":2},"metallicFactor":0}},{"doubleSided":true,"name":"Material_5","pbrMetallicRoughness":{"baseColorTexture":{"index":1},"metallicFactor":0}},{"alphaMode":"BLEND","doubleSided":true,"name":"Material_6","pbrMetallicRoughness":{"baseColorFactor":[1,1,1,0.8],"baseColorTexture":{"index":3},"metallicFactor":0}},{"doubleSided":true,"name":"material","pbrMetallicRoughness":{"baseColorTexture":{"index":4},"metallicFactor":0}}],"meshes":[{"name":"Object_0","primitives":[{"attributes":{"NORMAL":1,"POSITION":0,"TEXCOORD_0":2},"indices":3,"material":0,"mode":4}]},{"name":"Object_1","primitives":[{"attributes":{"NORMAL":5,"POSITION":4,"TEXCOORD_0":6},"indices":7,"material":1,"mode":4}]},{"name":"Object_2","primitives":[{"attributes":{"NORMAL":9,"POSITION":8,"TEXCOORD_0":10},"indices":11,"material":2,"mode":4}]},{"name":"Object_3","primitives":[{"attributes":{"NORMAL":13,"POSITION":12,"TEXCOORD_0":14},"indices":15,"material":3,"mode":4}]},{"name":"Object_4","primitives":[{"attributes":{"NORMAL":17,"POSITION":16,"TEXCOORD_0":18},"indices":19,"material":4,"mode":4}]},{"name":"Object_5","primitives":[{"attributes":{"NORMAL":21,"POSITION":20,"TEXCOORD_0":22},"indices":23,"material":5,"mode":4}]},{"name":"Object_6","primitives":[{"attributes":{"NORMAL":25,"POSITION":24,"TEXCOORD_0":26},"indices":27,"material":6,"mode":4}]},{"name":"Object_7","primitives":[{"attributes":{"NORMAL":29,"POSITION":28,"TEXCOORD_0":30},"indices":31,"material":7,"mode":4}]}],"nodes":[{"children":[1],"matrix":[1,0,0,0,0,2.220446049250313e-16,-1,0,0,1,2.220446049250313e-16,0,0,0,0,1],"name":"Sketchfab_model"},{"children":[2,3,4,5,6,7,8,9],"name":"paimon.obj.cleaner.materialmerger.gles"},{"mesh":0,"name":"Object_2"},{"mesh":1,"name":"Object_3"},{"mesh":2,"name":"Object_4"},{"mesh":3,"name":"Object_5"},{"mesh":4,"name":"Object_6"},{"mesh":5,"name":"Object_7"},{"mesh":6,"name":"Object_8"},{"mesh":7,"name":"Object_9"}],"samplers":[{"magFilter":9729,"minFilter":9987,"wrapS":10497,"wrapT":10497}],"scene":0,"scenes":[{"name":"Sketchfab_Scene","nodes":[0]}],"textures":[{"sampler":0,"source":0},{"sampler":0,"source":1},{"sampler":0,"source":2},{"sampler":0,"source":3},{"sampler":0,"source":4}]}